<svg xmlns="http://www.w3.org/2000/svg" width="21" height="18" viewBox="0 0 21 18">
  <path fill="#775EF7" fill-rule="evenodd" d="M6.59530597,17.0436418 C14.5094328,17.0436418 18.8371567,10.4871493 18.8371567,4.80184328 C18.8371567,4.61540299 18.8334478,4.42990299 18.8248806,4.24560448 C19.6648806,3.63827612 20.3952313,2.88039552 20.9713731,2.01777612 C20.2003806,2.36025373 19.3707239,2.59099254 18.5005299,2.69510448 C19.388694,2.16247761 20.0707239,1.31976119 20.392306,0.315 C19.5608731,0.807820896 18.6403731,1.16628358 17.6603209,1.35935821 C16.8753284,0.523067164 15.7570522,0 14.5197761,0 C12.1435373,0 10.2164478,1.9268806 10.2164478,4.30233582 C10.2164478,4.63995522 10.2542687,4.9683806 10.3281866,5.28332836 C6.75233582,5.10352239 3.58133582,3.39134328 1.45960448,0.78791791 C1.08964925,1.42371642 0.876880597,2.16247761 0.876880597,2.95060448 C0.876880597,4.44332836 1.63648507,5.761 2.79148507,6.5319403 C2.08584328,6.51026119 1.42272388,6.31624627 0.842925373,5.99367164 C0.841932836,6.01158955 0.841932836,6.02971642 0.841932836,6.04862687 C0.841932836,8.13253731 2.32514925,9.87219403 4.29376866,10.2667537 C3.9323806,10.3650672 3.55208209,10.4180896 3.15950746,10.4180896 C2.88232836,10.4180896 2.61282836,10.3906119 2.35069403,10.3404627 C2.89836567,12.0499254 4.48668657,13.2938358 6.37026119,13.3288881 C4.89723134,14.4828955 3.04228358,15.1705672 1.0264403,15.1705672 C0.679104478,15.1705672 0.336783582,15.1507164 0,15.1110672 C1.90426119,16.3314179 4.16505224,17.0436418 6.59530597,17.0436418"/>
</svg>
