<svg xmlns="http://www.w3.org/2000/svg" width="28" height="43" viewBox="0 0 28 43">
  <g fill="none" fill-rule="evenodd" transform="translate(2 2)">
    <path stroke="#FFF" stroke-width="3.24" d="M7.10281029e-17,0.505707825 L2.97703679e-15,38.2530951 L1.72084569e-15,38.2530951 C5.67035912e-15,38.4916822 0.193412988,38.6850951 0.432,38.6850951 C0.53309473,38.6850951 0.630987802,38.6496402 0.708636028,38.5849031 L23.3464733,19.7112094 L23.3464733,19.7112094 C23.5297257,19.5584276 23.554427,19.2860179 23.4016452,19.1027655 C23.3849564,19.0827483 23.3664905,19.0642823 23.3464733,19.0475935 L0.708636028,0.173899887 L0.708636028,0.173899887 C0.525383564,0.0211180276 0.252973921,0.0458193331 0.100192062,0.229071797 C0.0354549215,0.306720024 4.87219827e-16,0.404613096 4.99600361e-16,0.505707825 Z"/>
    <rect width="3.243" height="15.041" x="16.43" y="26.307" fill="#FFF" rx="1.622" transform="rotate(-37 18.052 33.828)"/>
  </g>
</svg>
