<svg xmlns="http://www.w3.org/2000/svg" xmlns:xlink="http://www.w3.org/1999/xlink" width="21" height="21" viewBox="0 0 21 21">
  <defs>
    <polygon id="-hover-a" points="0 .033 20.967 .033 20.967 20.997 0 20.997"/>
  </defs>
  <g fill="none" fill-rule="evenodd">
    <mask id="-hover-b" fill="#fff">
      <use xlink:href="#-hover-a"/>
    </mask>
    <path fill="#A558C8" d="M10.4834573,0.0330853392 C7.63632604,0.0330853392 7.27932604,0.0450787746 6.16117943,0.0961772429 C5.04528446,0.147137856 4.28321882,0.324328228 3.61645733,0.583450766 C2.92704158,0.851350109 2.34239606,1.20982057 1.75958862,1.79262801 C1.17678118,2.37543545 0.818310722,2.96012691 0.55045733,3.64949672 C0.291196937,4.31635011 0.114006565,5.07841575 0.0631378556,6.19426477 C0.0120853392,7.31241138 4.595186e-05,7.66936543 4.595186e-05,10.5164967 C4.595186e-05,13.3637199 0.0120853392,13.720674 0.0631378556,14.8388206 C0.114006565,15.9546696 0.291196937,16.7167352 0.55045733,17.3835886 C0.818310722,18.0729584 1.17678118,18.6576499 1.75958862,19.2404573 C2.34239606,19.8232648 2.92704158,20.1817352 3.61645733,20.4496346 C4.28321882,20.7087571 5.04528446,20.8859475 6.16117943,20.9369081 C7.27932604,20.9879147 7.63632604,21 10.4834573,21 C13.3305886,21 13.6876346,20.9879147 14.8057812,20.9369081 C15.9216302,20.8859475 16.6836958,20.7087571 17.3505033,20.4496346 C18.039919,20.1817352 18.6245186,19.8232648 19.207326,19.2404573 C19.7901335,18.6576499 20.1486039,18.0729584 20.4165033,17.3835886 C20.6757177,16.7167352 20.8529081,15.9546696 20.9038228,14.8388206 C20.9548753,13.720674 20.9668687,13.3637199 20.9668687,10.5164967 C20.9668687,7.66936543 20.9548753,7.31241138 20.9038228,6.19426477 C20.8529081,5.07841575 20.6757177,4.31635011 20.4165033,3.64949672 C20.1486039,2.96012691 19.7901335,2.37543545 19.207326,1.79262801 C18.6245186,1.20982057 18.039919,0.851350109 17.3505033,0.583450766 C16.6836958,0.324328228 15.9216302,0.147137856 14.8057812,0.0961772429 C13.6876346,0.0450787746 13.3305886,0.0330853392 10.4834573,0.0330853392 M10.4834573,1.92198249 C13.2826608,1.92198249 13.6141575,1.93264333 14.7196674,1.98305252 C15.7417746,2.02969365 16.2968731,2.20054267 16.6662801,2.34405033 C17.1556674,2.53424508 17.5049015,2.76143107 17.8716893,3.12826477 C18.2386149,3.49514442 18.4658009,3.8443326 18.6559037,4.33367396 C18.7994114,4.70308096 18.9702604,5.25822538 19.0169015,6.28028665 C19.0673107,7.3857965 19.0780175,7.71729322 19.0780175,10.5164967 C19.0780175,13.3157921 19.0673107,13.6472888 19.0169015,14.7527068 C18.9702604,15.77486 18.7994114,16.3300044 18.6559037,16.6994114 C18.4658009,17.1887068 18.2386149,17.5379409 17.8716893,17.9048206 C17.5049015,18.2716543 17.1556674,18.4988403 16.6662801,18.6889891 C16.2968731,18.8325427 15.7417746,19.0033917 14.7196674,19.0499409 C13.6143414,19.100442 13.2828906,19.1110569 10.4834573,19.1110569 C7.68402407,19.1110569 7.3525733,19.100442 6.24724726,19.0499409 C5.225186,19.0033917 4.67004158,18.8325427 4.30063457,18.6889891 C3.81129322,18.4988403 3.46205908,18.2716543 3.09522538,17.9048206 C2.72843764,17.5379409 2.50125164,17.1887068 2.31105689,16.6994114 C2.16750328,16.3300044 1.99670022,15.77486 1.95001313,14.7527068 C1.89964989,13.6472888 1.88894311,13.3157921 1.88894311,10.5164967 C1.88894311,7.71729322 1.89964989,7.3857965 1.95001313,6.28028665 C1.99670022,5.25822538 2.16750328,4.70308096 2.31105689,4.33367396 C2.50125164,3.8443326 2.72843764,3.49514442 3.09522538,3.12826477 C3.46205908,2.76143107 3.81129322,2.53424508 4.30063457,2.34405033 C4.67004158,2.20054267 5.225186,2.02969365 6.24724726,1.98305252 C7.35275711,1.93264333 7.68425383,1.92198249 10.4834573,1.92198249" mask="url(#-hover-b)"/>
    <path fill="#A558C8" d="M10.4834573 14.0109978C8.55352516 14.0109978 6.98895624 12.4464748 6.98895624 10.5164967 6.98895624 8.58656455 8.55352516 7.02204158 10.4834573 7.02204158 12.4134354 7.02204158 13.9779584 8.58656455 13.9779584 10.5164967 13.9779584 12.4464748 12.4134354 14.0109978 10.4834573 14.0109978M10.4834573 5.13314442C7.51032604 5.13314442 5.10010503 7.54341138 5.10010503 10.5164967 5.10010503 13.4897199 7.51032604 15.899895 10.4834573 15.899895 13.4565886 15.899895 15.8668096 13.4897199 15.8668096 10.5164967 15.8668096 7.54341138 13.4565886 5.13314442 10.4834573 5.13314442M17.3375908 4.92043326C17.3375908 5.61517943 16.7743589 6.17845733 16.0795667 6.17845733 15.3848206 6.17845733 14.8215427 5.61517943 14.8215427 4.92043326 14.8215427 4.22564114 15.3848206 3.66240919 16.0795667 3.66240919 16.7743589 3.66240919 17.3375908 4.22564114 17.3375908 4.92043326"/>
  </g>
</svg>
