<svg xmlns="http://www.w3.org/2000/svg" width="24" height="24" viewBox="0 0 24 24">
  <path fill="#DF5A8B" fill-rule="evenodd" d="M24,20 C24,22.209139 22.209139,24 20,24 C17.790861,24 16,22.209139 16,20 C16,17.790861 17.790861,16 20,16 C22.209139,16 24,17.790861 24,20 L24,20 Z M20,18 C18.8954305,18 18,18.8954305 18,20 C18,21.1045695 18.8954305,22 20,22 C21.1045695,22 22,21.1045695 22,20 C22,18.8954305 21.1045695,18 20,18 L20,18 Z M19,12 C19,8.134 15.87,2 12,2 C8.13,2 5,8.134 5,12 L5,16 L3,16 L3,12 C3,7.029 7.03,0 12,0 C16.97,0 21,7.029 21,12 L21,16 L19,16 L19,12 L19,12 Z M8,20 C8,22.209139 6.209139,24 4,24 C1.790861,24 0,22.209139 0,20 C0,17.790861 1.790861,16 4,16 C6.209139,16 8,17.790861 8,20 L8,20 Z M4,18 C2.8954305,18 2,18.8954305 2,20 C2,21.1045695 2.8954305,22 4,22 C5.1045695,22 6,21.1045695 6,20 C6,18.8954305 5.1045695,18 4,18 L4,18 Z"/>
</svg>
