<svg xmlns="http://www.w3.org/2000/svg" width="24" height="24" viewBox="0 0 24 24">
  <path fill="#A558C8" fill-rule="evenodd" d="M20.0152479,23.9082684 C18.3315813,23.9219492 16.8210203,22.8759398 16.2415459,21.2951149 C15.6620716,19.71429 16.1387599,17.9398611 17.4324146,16.862215 C18.7260692,15.7845689 20.5574626,15.6363089 22.007624,16.4918302 L22.007624,2.23672887 L8.06099167,6.70950352 L8.06099167,18.9274503 C8.05833851,19.0410489 8.03469647,19.153177 7.9912585,19.2581766 C8.03467882,19.4774088 8.05801982,19.7001432 8.06099167,19.9236139 C8.08167678,21.7543844 6.86575559,23.3690893 5.10049732,23.8550568 C3.33523905,24.3410244 1.46419743,23.5761462 0.54493223,21.9927506 C-0.374332975,20.4093551 -0.110839413,18.4052996 1.18647973,17.1133267 C2.48379887,15.8213538 4.48896821,15.5660955 6.06861562,16.4918302 L6.06861562,5.97732326 C6.03354204,5.67968667 6.14950965,5.38420888 6.37766769,5.18987903 C6.60582573,4.99554918 6.91599705,4.92807016 7.20426997,5.01004839 L22.7647269,0.0202648253 C22.8305748,0.00966774265 22.8973515,0.00599511531 22.9639645,0.00930702554 C22.9739263,0.00930702554 22.9938501,0.000341552978 23.003812,0.000341552978 C23.0104454,-0.000113850993 23.0171023,-0.000113850993 23.0237357,0.000341552978 C23.4150674,-0.00503391949 23.7685557,0.233266981 23.9103431,0.598039724 C23.9170078,0.600337552 23.92116,0.606980779 23.920305,0.613978341 C23.9302668,0.638882432 23.9501906,0.657809541 23.9601525,0.683709795 C23.9701144,0.73750263 23.9601525,0.789303138 23.9701144,0.843095973 C23.9851293,0.8931172 23.9951403,0.944505684 24,0.996505171 L24,19.9236139 C24,22.1242778 22.2159657,23.9082684 20.0152479,23.9082684 L20.0152479,23.9082684 Z M20.0152479,17.9312867 C18.914889,17.9312867 18.0228719,18.823282 18.0228719,19.9236139 C18.0228719,21.0239459 18.914889,21.9159411 20.0152479,21.9159411 C21.1156068,21.9159411 22.007624,21.0239459 22.007624,19.9236139 C22.007624,18.823282 21.1156068,17.9312867 20.0152479,17.9312867 L20.0152479,17.9312867 Z M4.07623958,17.9312867 C2.97588068,17.9312867 2.08386354,18.823282 2.08386354,19.9236139 C2.08386354,21.0239459 2.97588068,21.9159411 4.07623958,21.9159411 C5.17659849,21.9159411 6.06861562,21.0239459 6.06861562,19.9236139 C6.06861562,18.823282 5.17659849,17.9312867 4.07623958,17.9312867 L4.07623958,17.9312867 Z"/>
</svg>
