<svg xmlns="http://www.w3.org/2000/svg" width="31" height="24" viewBox="0 0 31 24">
  <path fill="#775EF7" fill-rule="evenodd" d="M23.81,14 C21.0485763,14 18.81,11.7614237 18.81,9 C18.81,6.23857625 21.0485763,4 23.81,4 C26.5714237,4 28.81,6.23857625 28.81,9 C28.81,11.7614237 26.5714237,14 23.81,14 L23.81,14 Z M23.81,6 C22.1531458,6 20.81,7.34314575 20.81,9 C20.81,10.6568542 22.1531458,12 23.81,12 C25.4668542,12 26.81,10.6568542 26.81,9 C26.81,7.34314575 25.4668542,6 23.81,6 L23.81,6 Z M15.3,19.32 C14.2972094,17.2162825 12.1387974,15.9110134 9.81,16 C5.3,16 3.49,19.653 2.98,24 L0.99,24 C1.64,18.575 4.2,14 9.81,14 C12.5541364,13.908046 15.1345109,15.3033597 16.56,17.65 C16.0601637,18.1416781 15.6355934,18.7044022 15.3,19.32 L15.3,19.32 Z M9.81,12 C6.4962915,12 3.81,9.3137085 3.81,6 C3.81,2.6862915 6.4962915,0 9.81,0 C13.1237085,0 15.81,2.6862915 15.81,6 C15.81,9.3137085 13.1237085,12 9.81,12 L9.81,12 Z M9.81,2 C7.600861,2 5.81,3.790861 5.81,6 C5.81,8.209139 7.600861,10 9.81,10 C12.019139,10 13.81,8.209139 13.81,6 C13.81,3.790861 12.019139,2 9.81,2 L9.81,2 Z M23.81,16 C28.21,16 30.19,19.668 30.68,24 L28.7,24 C28.34,20.739 27.04,18 23.81,18 C20.58,18 19.28,20.741 18.92,24 L16.94,24 C17.43,19.669 19.41,16 23.81,16 L23.81,16 Z"/>
</svg>
